<svg xmlns="http://www.w3.org/2000/svg" xmlns:xlink="http://www.w3.org/1999/xlink" version="1.1" x="0px" y="0px" viewBox="0 0 100 125" style="enable-background:new 0 0 100 100;" xml:space="preserve"><style type="text/css">
	.st0{fill-rule:evenodd;clip-rule:evenodd;}
</style><g><path style="fill:white" d="M94.4,41.6c0-4.4-2.6-8.4-6.6-10.2c-1-6.2-6.1-11-12.3-11.5c-1.7-3.5-5.3-5.8-9.3-5.8c0,0,0,0,0,0c0,0,0,0,0,0   c-0.5,0-1,0.1-1.5,0.1c0,0-0.1,0-0.1,0c-0.5,0.1-1.1,0.2-1.6,0.4C61,13,58.5,12,55.9,12c-2.1,0-4.2,0.6-5.9,1.8   c-1.8-0.8-3.8-1.2-5.9-1.2c-4.1,0-8,1.7-10.7,4.8c-0.9-0.2-1.7-0.3-2.6-0.3c-3.6,0-6.9,1.8-8.8,4.9c-0.1,0-0.3,0-0.4,0   c-0.2,0-0.4,0-0.5,0c-0.2,0-0.4,0.1-0.6,0.1c-0.2,0-0.3,0.1-0.5,0.1c-0.2,0-0.4,0.1-0.6,0.2c-0.2,0-0.3,0.1-0.5,0.1   c-0.2,0.1-0.4,0.1-0.5,0.2c-0.2,0.1-0.4,0.1-0.5,0.2c-0.1,0.1-0.3,0.1-0.4,0.2c-0.2,0.1-0.4,0.2-0.6,0.3c0,0,0,0,0,0   c-3.5,1.9-5.9,5.6-6.2,9.8c0,0,0,0.1,0,0.1c-3.2,3-5,7.3-5,11.7c0,8.9,7.3,16.2,16.2,16.2c0.9,0,1.9-0.1,2.8-0.2   c1.2,0.4,2.5,0.6,3.8,0.7c2.6,6.4,7.8,9.8,14.9,9.8c6.8,0,15,6.9,15,15V88L69.8,88l-1.3-9.3c7.9,0.8,15.4-4.3,17.4-12.2   c0.3-1.4,0.5-2.8,0.5-4.1c4.7-1.7,8-6.2,8-11.3c0-1.7-0.3-3.3-1-4.8C94,44.8,94.4,43.2,94.4,41.6z M90.1,47c0.7,1.3,1,2.6,1,4.1   c0,3.4-2,6.5-5.1,7.9c-1.3-5.9-5.9-10.7-11.8-12.2c-0.9-0.2-1.8,0.3-2,1.2c-0.2,0.9,0.3,1.8,1.2,2c5.3,1.3,9.2,5.8,9.7,11.2   c0.2,1.5,0,3-0.3,4.5C81,72.7,74,76.9,67,75.1l-2.3-0.6l1.4,10.2l-4.6,0c-1-9.4-10.4-16.7-18.2-16.7c-5.4,0-9.2-2.2-11.4-6.6   c0-0.1,0-0.2-0.1-0.3c-1.7-3.5-0.2-7.8,3.4-9.5c0.8-0.4,1.2-1.4,0.8-2.2c-0.4-0.8-1.4-1.2-2.2-0.8c-3.8,1.8-5.9,5.6-5.9,9.5   c-0.9-0.1-1.8-0.3-2.6-0.6l-0.4-0.2l-0.4,0.1c-0.8,0.2-1.7,0.3-2.6,0.3c-7.1,0-13-5.8-13-13c0-2.6,0.8-5.2,2.3-7.3   c1.2,3.8,4.4,6.8,8.3,7.8c-0.3,0.5-0.5,1-0.6,1.5c-0.4,1.8-0.2,3.6,0.8,5.2c0.3,0.5,0.8,0.8,1.4,0.8c0.3,0,0.6-0.1,0.8-0.2   c0.8-0.5,1-1.5,0.6-2.2c-0.5-0.8-0.6-1.8-0.4-2.7c0.2-0.9,0.8-1.7,1.6-2.2c0.8-0.5,1-1.5,0.6-2.2c-0.4-0.6-1.1-0.9-1.8-0.7   c-4.7-0.1-8.6-4-8.6-8.7c0-4.8,3.9-8.7,8.7-8.7c0.1,0,0.1,0,0.2,0l1.3,0.1l0.5-1c1.2-2.5,3.7-4,6.4-4c0.9,0,1.7,0.2,2.6,0.5   l1.1,0.4l0.7-1c2.1-2.8,5.4-4.4,8.9-4.4c1.8,0,3.7,0.5,5.3,1.3l1,0.5l0.8-0.7c1.3-1.1,2.9-1.7,4.6-1.7c1.4,0,2.8,0.4,3.9,1.2   c-2.4,1.9-4,4.8-4,8.1c0,0.9,0.7,1.6,1.6,1.6c0.9,0,1.6-0.7,1.6-1.6c0-2.7,1.5-5,3.6-6.2l0.5-0.2c1-0.4,2-0.7,3-0.7   c3,0,5.6,1.9,6.7,4.7l0.4,1.1l1.1,0c5.4,0,9.9,4.3,10.3,9.6l0.1,1.1l1,0.3c3.2,1.1,5.4,4.1,5.4,7.5c0,1.3-0.3,2.7-1,3.8l-0.4,0.8   L90.1,47z M55.7,55.3c0-3-1.5-5.8-4-7.5c0,0,0,0,0,0c-4.3-2-7.3-6.1-7.9-10.8c-0.1-0.7,0.4-1.4,1.1-1.5c0.7-0.1,1.4,0.4,1.5,1.1   c0.6,4.3,3.5,7.9,7.6,9.3c2.9,1,6,0.8,8.8-0.5c2.8-1.3,4.8-3.7,5.8-6.6c0.2-0.7,1-1,1.7-0.8c0.7,0.2,1,1,0.8,1.7   c-1.2,3.6-3.8,6.4-7.2,8c-1.9,0.9-4,1.4-6.1,1.4c-0.4,0-0.8,0-1.3-0.1c1.1,1.8,1.8,3.9,1.8,6.2c0,0.7-0.6,1.3-1.3,1.3   S55.7,56,55.7,55.3z M80.4,40.3c0,0.7-0.6,1.3-1.3,1.3s-1.3-0.6-1.3-1.3c0-5.9-4.8-10.7-10.7-10.7c-0.7,0-1.3-0.6-1.3-1.3   s0.6-1.3,1.3-1.3C74.4,27,80.4,33,80.4,40.3z M46,26.9c0-0.7,0.6-1.3,1.3-1.3c5.7,0,10.4,4.6,10.4,10.4c0,0.7-0.6,1.3-1.3,1.3   s-1.3-0.6-1.3-1.3c0-4.3-3.5-7.8-7.8-7.8C46.6,28.2,46,27.6,46,26.9z M42.9,56.6c-0.2,0.4-0.7,0.6-1.1,0.6c-0.2,0-0.5-0.1-0.7-0.2   c-0.6-0.4-0.8-1.2-0.4-1.8c2.2-3.5,1.1-8.1-2.4-10.3c-0.6-0.4-0.8-1.2-0.4-1.8c0.4-0.6,1.2-0.8,1.8-0.4   C44.4,45.7,45.8,51.9,42.9,56.6z M41.7,33.6c-2,0-3.8-0.9-5.2-2.2c-2.3,3.3-6.1,5.1-9.9,5.1c-2,0-4.1-0.5-6-1.6   c-0.6-0.4-0.8-1.2-0.5-1.8c0.4-0.6,1.2-0.8,1.8-0.5c4.5,2.6,10.3,1.1,13-3.5c-0.5-1.1-0.8-2.3-0.8-3.5c0-0.7,0.6-1.3,1.3-1.3   c0.7,0,1.3,0.6,1.3,1.3c-0.1,2.8,2.2,5.2,5,5.3c0.7,0,1.3,0.6,1.3,1.3C43,33.1,42.4,33.6,41.7,33.6C41.7,33.6,41.7,33.6,41.7,33.6z    M72.2,59c0.6,0.4,0.7,1.2,0.3,1.8c-2.5,3.6-6.5,5.6-10.6,5.6c-2.5,0-5-0.7-7.2-2.2c-0.6-0.4-0.7-1.2-0.3-1.8   c0.4-0.6,1.2-0.7,1.8-0.3c2.3,1.5,5,2.1,7.7,1.6c2.7-0.5,5-2,6.6-4.3C70.8,58.8,71.6,58.6,72.2,59z"/></g></svg>