<svg xmlns="http://www.w3.org/2000/svg" xmlns:xlink="http://www.w3.org/1999/xlink" version="1.1" x="0px" y="0px" viewBox="0 0 100 125" enable-background="new 0 0 100 100" xml:space="preserve"><g><path style="fill:white" d="M50.303,0.345C38.875-1.332,31.925,3.328,28.107,7.531c-6.093,6.704-8.234,16.803-6.786,22.694   c0.33,1.341,1.685,2.161,3.025,1.831c1.341-0.33,2.16-1.684,1.831-3.025c-0.969-3.94,0.448-12.435,5.63-18.137   c4.367-4.806,10.344-6.691,17.771-5.601c17.614,2.583,25.499,20.083,25.499,36.28c0,12.635-4.263,23.459-13.822,35.095   l-1.231,1.502c-8.01,9.782-14.924,18.231-23.52,16.627c-11.985-2.24-11.587-15.556-11.564-16.115   c0.063-1.379-1.004-2.549-2.383-2.611c-1.399-0.074-2.549,1.003-2.612,2.383c-0.288,6.288,2.609,18.823,15.641,21.258   c1.067,0.2,2.105,0.295,3.118,0.295c9.903,0,17.35-9.094,25.189-18.669l1.226-1.495c10.346-12.593,14.959-24.396,14.959-38.269   C80.076,23.225,70.87,3.363,50.303,0.345z"/><path style="fill:white" d="M27.79,74.057c1.067,0.764,2.088,1.07,3.051,1.069c2.478,0,4.577-2.027,6.11-3.509c1.561-1.509,3.175-3.068,5.05-3.416   c8.032-1.492,13.19-6.093,15.332-13.675c1.369-4.848,0.833-9.001-1.592-12.344c-4.51-6.213-14.272-7.46-18.797-7.699   c-1.565-4.041-1.911-8.325-0.09-12.101c1.643-3.406,3.988-5.645,6.783-6.473c3.042-0.902,6.625-0.179,10.359,2.087   c11.086,6.727,12.118,26.603,7.958,37.33c-2.372,6.116-3.903,9.219-8.611,13.254c-1.049,0.898-1.17,2.478-0.271,3.525   c0.495,0.577,1.195,0.873,1.899,0.873c0.576,0,1.154-0.198,1.626-0.602c5.739-4.92,7.614-9.041,10.02-15.242   c4.789-12.351,3.975-34.917-10.026-43.413c-4.972-3.017-9.941-3.92-14.374-2.607c-4.183,1.239-7.595,4.384-9.867,9.095   c-4.492,9.313,0.493,20.477,7.426,27.41c0.977,0.976,2.559,0.976,3.536,0c0.976-0.976,0.976-2.559,0-3.536   c-1.29-1.29-2.496-2.753-3.562-4.317c3.907,0.523,9.417,1.868,11.944,5.351c1.501,2.069,1.771,4.702,0.826,8.048   c-1.603,5.677-5.343,8.987-11.432,10.118c-3.354,0.622-5.715,2.903-7.612,4.736c-0.789,0.763-2.11,2.039-2.569,2.087   c0-0.001-0.068-0.018-0.208-0.118c-0.832-0.595-1.048-0.954,0.35-3.976c0.72-1.557,1.465-3.166,1.186-4.864   c-0.898-5.473-0.042-6.766,0.242-7.031c0.21-0.196,0.776-0.21,1.515-0.04c1.189,0.277,1.626,0.957,1.783,1.479   c0.161,0.535,0.032,0.957-0.05,1.046c-1.042,0.903-1.156,2.48-0.254,3.524c0.902,1.046,2.482,1.16,3.526,0.257   c1.563-1.351,2.214-3.68,1.657-5.935c-0.648-2.628-2.716-4.587-5.53-5.242c-3.126-0.726-5.022,0.284-6.064,1.26   c-2.8,2.623-2.411,7.519-1.765,11.421c-0.009,0.352-0.475,1.358-0.784,2.024C25.39,66.338,23.304,70.848,27.79,74.057z"/></g></svg>