<svg xmlns:dc="http://purl.org/dc/elements/1.1/" xmlns:cc="http://creativecommons.org/ns#" xmlns:rdf="http://www.w3.org/1999/02/22-rdf-syntax-ns#" xmlns:svg="http://www.w3.org/2000/svg" xmlns="http://www.w3.org/2000/svg" xmlns:sodipodi="http://sodipodi.sourceforge.net/DTD/sodipodi-0.dtd" xmlns:inkscape="http://www.inkscape.org/namespaces/inkscape" version="1.1" x="0px" y="0px" viewBox="0 0 100 125"><g transform="translate(0,-952.36218)"><path style="fill:white;" d="M 50 28 C 31.68178 28 15.541228 36.23916 6.375 48.8125 A 2.0001998 2.0001998 0 0 0 6.375 51.15625 C 15.541229 63.72965 31.681781 72 50 72 C 64.659029 72 77.899366 66.70705 87.3125 58.15625 A 2.0022385 2.0022385 0 1 0 84.625 55.1875 C 78.840462 60.442085 71.420366 64.424082 63.03125 66.46875 C 67.885085 62.614379 71 56.656117 71 50 C 71 43.37571 67.907847 37.449618 63.09375 33.59375 C 74.573246 36.400046 84.255018 42.761485 90.375 51.15625 A 2.0034614 2.0034614 0 0 0 93.625 48.8125 C 84.458772 36.23916 68.31822 28 50 28 z M 50 33 C 59.412533 33 67 40.58745 67 50 C 67 59.4125 59.412533 67 50 67 C 40.587466 67 33 59.4125 33 50 C 33 40.58745 40.587466 33 50 33 z M 36.875 33.625 C 32.080737 37.481513 29 43.391627 29 50 C 29 56.6402 32.103546 62.582357 36.9375 66.4375 C 26.015787 63.755508 16.748638 57.803896 10.59375 50 C 16.734683 42.204354 25.980782 36.312323 36.875 33.625 z M 50 41 C 45.053126 41 41 45.05311 41 50 C 41 54.9469 45.053126 59 50 59 C 54.946873 59 59 54.9469 59 50 C 59 45.05311 54.946873 41 50 41 z M 50 45 C 52.785113 45 55 47.21487 55 50 C 55 52.7851 52.785113 55 50 55 C 47.214886 55 45 52.7851 45 50 C 45 47.21487 47.214886 45 50 45 z " transform="translate(0,952.36218)"/></g></svg>