<svg xmlns="http://www.w3.org/2000/svg" xmlns:xlink="http://www.w3.org/1999/xlink" version="1.1" x="0px" y="0px" viewBox="0 0 100 125" enable-background="new 0 0 100 100" xml:space="preserve"><g><path style="fill:white" d="M80.484,48.521c-1.281-1.131-2.956-1.755-4.715-1.755c-2.183,0-4.227,0.967-5.595,2.639l-6.933,8.236V23.748   c0-3.733-3.038-6.771-6.772-6.771c-1.563,0-3.003,0.531-4.15,1.424v-6.629C52.319,8.037,49.281,5,45.547,5   c-3.733,0-6.771,3.037-6.771,6.772v2.286c-1.147-0.893-2.589-1.425-4.151-1.425c-3.734,0-6.771,3.038-6.771,6.771v4.498   c-1.155-0.913-2.603-1.465-4.15-1.465c-3.734,0-6.772,3.037-6.772,6.771v41.58c0,14.48,8.856,24.21,22.039,24.21   c6.268,0,12.802-0.885,18.133-7.295L81.371,58.78C83.953,55.669,83.541,51.054,80.484,48.521z M79.358,57.102L55.09,86.025   c-4.384,5.273-9.615,6.354-16.12,6.354c-11.795,0-19.418-8.475-19.418-21.589V29.21c0-2.288,1.862-4.15,4.151-4.15   c2.25,0,4.15,1.9,4.15,4.15v19.674c0,0.723,0.587,1.31,1.311,1.31s1.311-0.587,1.311-1.31V19.405c0-2.326,1.823-4.149,4.15-4.149   s4.151,1.823,4.151,4.149v27.306c0,0.724,0.586,1.312,1.31,1.312c0.725,0,1.311-0.588,1.311-1.312V11.772   c0-2.328,1.824-4.151,4.15-4.151c2.328,0,4.151,1.823,4.151,4.151v36.057c0,0.723,0.587,1.31,1.311,1.31   c0.723,0,1.311-0.587,1.311-1.31V23.748c0-2.287,1.861-4.149,4.15-4.149s4.15,1.862,4.15,4.149v37.485   c0,0.55,0.344,1.043,0.862,1.23c0.519,0.19,1.096,0.034,1.451-0.387l9.258-10.998c0.88-1.075,2.184-1.691,3.578-1.691   c1.12,0,2.178,0.39,3.011,1.124C80.755,52.149,81.012,55.106,79.358,57.102z"/></g></svg>