<svg xmlns="http://www.w3.org/2000/svg" xmlns:xlink="http://www.w3.org/1999/xlink" version="1.1" x="0px" y="0px" viewBox="0 0 100 125" enable-background="new 0 0 100 100" xml:space="preserve"><path style="fill:white" d="M53.9,17.6c1.5-0.2,3,0.2,4.5,0.6c3,0.9,5.2,3.3,8,4.5c1.9,0.9,4,1.3,6.1,1.6c1.2,0.2,2.3,1,3.5,1.2c3,0.6,6.1,1.8,8,4.3  c1.4,1.7,2.4,3.7,3,5.8c1.1,3.8,2,7.7,2.8,11.5c0.6,2.5,1.3,4.9,1.1,7.5c-0.2,2.3,0.2,4.6-0.4,6.9c-4.2,7-9.7,13.5-16.8,17.6  c-3.2,1.6-6.5,2.9-10,3.7c-2.2,0.3-4.4,1.3-6.6,0.8c-4.3-0.2-8.2-2-12.1-3.6c-1.5-0.8-3.1-1.6-4.7-2.2c-2.5-1.4-5.4-2.2-7.9-3.6  c-4.5-2.3-8.1-5.8-11.1-9.8C18.3,59.6,16,54.3,14,49c-2.4-5.4-5.3-11-5-17.1c0.1-1.2,0.8-2.3,1.8-3c3.8-2.5,8.4-3.2,12.6-4.5  c3.5-1.1,7-2.1,10.7-2.7c2.5-0.5,4.9-1.3,7.4-1.8C45.6,19,49.8,18.4,53.9,17.6 M31.7,24.8c-6.8,1.6-13.7,2.9-20,6  c1.6,0.6,3.2,1.3,4.9,1.5c4.3,0.8,8.7-0.1,13-0.6c3-0.2,6-0.5,9-0.9c4.5-0.5,9-2,13.5-1.1c1.9,0.6,3.5,2.1,4.8,3.6  c1.5,1.7,3.4,3.1,5.5,4c1.5,0.4,3.1,0.3,4.6,0.1c2.9-0.7,6-1.1,9-0.6c-0.9,0.7-2.9,1.1-2.3,2.6c1.8,5,4.3,9.8,7.3,14.2  c1.5,2.3,3.6,4.3,4.2,7.1c0.6,1.5,2.4,1.8,3.9,2.1c-0.2-2-0.6-4-1.2-5.9c-1.5-6.7-2.3-13.5-4.4-20.1c-1.2-3-2.6-6.3-5.7-7.7  c-3-1.3-6.3-0.3-9.3-1.1c-5.1-0.9-7.9-6.1-12.9-7.3C47.6,20.7,39.7,23.6,31.7,24.8 M42.1,33.4c-2.6,0.4-5.3,0.5-8,0.8  c7.7,5.3,16.1,9.6,24.7,13.4c4.3,1.8,8.9,2.6,13.5,3.2c1.5,0.4,3,0.8,4.5,1.1c-0.5-1.6-1.6-3-2.3-4.5c-1.1-2.6-2.4-5.2-3-7.9  c-2.2,0.5-4.3,1.2-6.6,0.8c-4.6-0.8-8.9-3.1-12.2-6.2c-0.7-0.6-1.3-1.4-2.2-1.5C47.6,32.2,44.9,33,42.1,33.4 M11,33.2  c0.3,5.1,2.8,9.7,4.8,14.3c1.3,3.2,2.4,6.4,3.9,9.5c1.5,2.9,3,5.9,5.3,8.3c2,1.9,3.8,4.2,6.4,5.4c2.5,1.2,5.2,2.3,7.7,3.5  c3.8,1.7,8,2.6,11.9,4.1c4,1.1,8.3,2,12.3,0.7c1.8-0.5,3.4-1.6,5-2.4c2.5-1.1,4.9-2.4,7.2-3.8c3.9-2.6,7.2-6,10.6-9.1  c-4.8-0.8-9.7-1.3-14.5-2.2c-5-0.9-10.1-1.4-15.1-2.1c-3.1-0.5-6.3-0.3-9.3-1.3c-1.3-0.4-1.9-1.6-3-2.3c-2.8-2.1-4.7-5-7.2-7.3  c-3-2.7-6.2-5.2-9.8-7.1c-2.3-1.2-4.3-3.1-6.3-4.7c-0.6-0.4-1-1.1-1.8-1.1c-1.7-0.3-3.4-0.3-5-0.9C13.2,34,12.1,33.5,11,33.2  L11,33.2z"/></svg>