<svg xmlns="http://www.w3.org/2000/svg" data-name="Layer 1" viewBox="0 0 100 125" x="0px" y="0px"><title>nose</title><path style="fill:white;" d="M72.96436,80.92822A16.43541,16.43541,0,0,0,68.979,81.064c-2.605.43067-5.15429,2.18018-7.0913,3.66163-.5459.42089-1.07325.84326-1.57618,1.24609-.54052.43359-1.05029.84277-1.51757,1.19336-.523.3916-.94776.6875-1.36377.94775a11.81011,11.81011,0,0,1-7.26368,1.88672h-.35791a11.84159,11.84159,0,0,1-7.23632-1.92724c-.36133-.2378-.83789-.56006-1.36329-.96973-.47558-.35742-.99218-.77832-1.53955-1.22266-.49218-.3999-1.00732-.81836-1.54248-1.23486-1.91552-1.48242-4.44629-3.24219-7.05468-3.7002a16.73936,16.73936,0,0,0-4.01368-.15771,2.50016,2.50016,0,0,0,.38672,4.98535,11.58892,11.58892,0,0,1,2.77686.09961c1.53125.269,3.498,1.68506,4.83935,2.72314.502.39063.98926.78663,1.45508,1.165.6001.4878,1.168.94825,1.65137,1.311.62744.49023,1.21289.88574,1.665,1.18408a16.8963,16.8963,0,0,0,9.96924,2.74414h.352c.05175,0,.10351.00049.15527.00049a16.7132,16.7132,0,0,0,9.79932-2.66553c.51025-.31933,1.04443-.68994,1.68359-1.16845.50879-.38135,1.061-.82373,1.64648-1.293.47852-.3833.98047-.78614,1.49366-1.18116,1.354-1.03564,3.33105-2.44189,4.854-2.69384a11.25678,11.25678,0,0,1,2.74512-.08838,2.5001,2.5001,0,0,0,.43262-4.98145Z"/><path style="fill:white;" d="M90.64648,73.79053c-1.188-5.64063-6.28564-10.66162-10.78271-15.09131-2.70606-2.66553-5.26221-5.18311-6.12305-7.04834C72.189,48.28906,71.832,42.5542,71.54541,37.94629c-.124-1.9917-.24121-3.873-.44141-5.42285l-.042-.3335c-.11719-.95312-.39209-3.18506-.87988-5.76416C68.98926,20.12061,61.48779,5,50,5,37.92969,5,30.93945,20.66162,29.88867,26.05859c-.53027,2.72412-.82422,5.105-.94971,6.12159l-.04394.35107c-.19922,1.542-.31641,3.42334-.44043,5.415C28.168,42.5542,27.811,48.28906,26.25977,51.65088c-.86133,1.86523-3.41748,4.38281-6.12354,7.04834C15.63916,63.12891,10.5415,68.1499,9.354,73.78857c-1.76074,8.332,2.28174,18.2876,12.09424,20.52588a2.50014,2.50014,0,0,0,1.11231-4.875c-6.81006-1.55322-9.5752-8.65136-8.31446-14.61865.87745-4.166,5.40479-8.625,9.39893-12.55957,3.17187-3.124,5.91113-5.82227,7.1543-8.51465,1.94384-4.2124,2.31689-10.20361,2.646-15.48974.11865-1.90674.23047-3.70752.40723-5.0752l.04883-.38916c.11914-.96484.39843-3.2251.89551-5.77832C35.709,22.32861,41.76514,10,50,10c8.37988,0,14.47754,13.17188,15.269,17.355.458,2.4209.71924,4.541.83057,5.44629l.04639.37061c.17822,1.37744.29,3.17822.40869,5.085.3291,5.28613.70215,11.27734,2.64648,15.48974,1.24268,2.69238,3.98194,5.39063,7.15381,8.51465,3.99414,3.93457,8.52148,8.39356,9.39941,12.56152,1.26026,5.96534-1.50488,13.06348-8.31494,14.6167a2.50034,2.50034,0,0,0,.55371,4.938,2.52567,2.52567,0,0,0,.5586-.063C88.36426,92.07617,92.40674,82.12061,90.64648,73.79053Z"/></svg>